<svg width="250" height="120" viewBox="0 0 250 120" fill="none" xmlns="http://www.w3.org/2000/svg">
<g clip-path="url(#clip0_2370_245)">
<rect width="250" height="120" fill="white"/>
<path d="M212 95C253.421 95 287 61.4214 287 20C287 -21.4214 253.421 -55 212 -55C170.579 -55 137 -21.4214 137 20C137 61.4214 170.579 95 212 95Z" fill="#53C1DE"/>
<g filter="url(#filter0_d_2370_245)">
<path d="M208 24H168C159.163 24 152 31.1634 152 40V80C152 88.8366 159.163 96 168 96H208C216.837 96 224 88.8366 224 80V40C224 31.1634 216.837 24 208 24Z" fill="white"/>
</g>
<path fill-rule="evenodd" clip-rule="evenodd" d="M199.6 53.9762C200.354 50.9757 201.303 45.4116 197.96 43.5252C194.634 41.6471 190.305 45.246 188.019 47.4062C185.739 45.2675 181.288 41.6839 177.949 43.5763C174.623 45.4608 175.649 50.9326 176.42 53.9519C173.318 54.8143 168 56.672 168 60.4675C168 64.2522 173.312 66.2734 176.396 67.1351C175.622 70.171 174.648 75.5647 177.977 77.445C181.33 79.3369 185.767 75.8388 188.074 73.6549C190.375 75.8278 194.662 79.349 197.99 77.4634C201.328 75.5719 200.458 70.0825 199.687 67.0457C202.677 66.1821 208 64.205 208 60.4675C208 56.7086 202.654 54.8358 199.6 53.9762ZM199.221 65.4364C198.715 63.8675 198.032 62.1992 197.196 60.4759C197.994 58.7932 198.651 57.1465 199.143 55.5877C201.381 56.223 206.292 57.6748 206.292 60.4675C206.292 63.2865 201.579 64.7521 199.221 65.4364ZM197.133 76.0157C194.651 77.4225 190.963 74.0552 189.264 72.4551C190.391 71.2482 191.518 69.8453 192.617 68.2874C194.55 68.1195 196.377 67.8449 198.034 67.47C198.576 69.6181 199.627 74.6027 197.133 76.0157ZM178.832 75.9957C176.349 74.5942 177.483 69.7812 178.053 67.5448C179.691 67.8997 181.505 68.1549 183.443 68.3088C184.55 69.8331 185.709 71.2343 186.877 72.4615C185.433 73.828 181.326 77.4036 178.832 75.9957ZM169.708 60.4675C169.708 57.638 174.59 56.1968 176.879 55.5631C177.379 57.1568 178.036 58.8232 178.828 60.5084C178.026 62.2185 177.36 63.9113 176.854 65.5238C174.672 64.9121 169.708 63.2988 169.708 60.4675ZM178.805 45.024C181.298 43.6114 185.166 47.0517 186.821 48.6002C185.659 49.8217 184.511 51.2124 183.413 52.728C181.533 52.8987 179.732 53.1728 178.076 53.54C177.455 51.1048 176.314 46.4351 178.805 45.024ZM193.839 54.5461C195.115 54.7037 196.338 54.9134 197.486 55.1701C197.141 56.2515 196.712 57.3825 196.206 58.5417C195.472 57.1794 194.686 55.8445 193.839 54.5461ZM188.019 49.7956C188.807 50.6313 189.597 51.5646 190.373 52.5772C188.798 52.5043 187.221 52.504 185.645 52.5762C186.422 51.573 187.219 50.641 188.019 49.7956ZM179.809 58.5405C179.311 57.3853 178.885 56.2494 178.538 55.1524C179.679 54.9024 180.896 54.698 182.164 54.543C181.315 55.8385 180.529 57.173 179.809 58.5405ZM182.201 66.5115C180.89 66.3684 179.655 66.1745 178.514 65.9313C178.867 64.8151 179.303 63.6547 179.81 62.4745C180.542 63.8563 181.339 65.2037 182.201 66.5115ZM188.066 71.2578C187.257 70.4023 186.448 69.4561 185.66 68.4384C187.243 68.4992 188.831 68.4994 190.415 68.4302C189.636 69.4665 188.849 70.414 188.066 71.2578ZM196.222 62.4145C196.757 63.6074 197.208 64.7615 197.566 65.8589C196.405 66.1181 195.153 66.3266 193.835 66.4816C194.686 65.1586 195.486 63.8029 196.222 62.4145ZM191.663 66.6843C189.24 66.8538 186.802 66.8519 184.378 66.6982C183.001 64.7289 181.776 62.6579 180.717 60.5078C181.77 58.3621 182.987 56.2951 184.358 54.329C186.783 54.1495 189.223 54.149 191.649 54.3301C193.008 56.2961 194.224 58.3577 195.301 60.484C194.236 62.6285 193.013 64.6997 191.663 66.6843ZM197.107 44.9743C199.6 46.3823 198.491 51.3829 197.946 53.5573C196.286 53.1825 194.485 52.9035 192.597 52.7302C191.499 51.1981 190.36 49.8051 189.217 48.5993C190.892 47.0175 194.637 43.5801 197.107 44.9743Z" fill="#53C1DE"/>
<path d="M17.8 54V51.8H20.74V41.6H17.8V39.4H26.2V41.6H23.26V51.8H26.2V54H17.8ZM29.5322 54V43H31.9722V45.1H32.6522L31.9722 45.68C31.9722 44.7733 32.2322 44.0667 32.7522 43.56C33.2855 43.0533 34.0122 42.8 34.9322 42.8C36.0122 42.8 36.8722 43.16 37.5122 43.88C38.1655 44.6 38.4922 45.5667 38.4922 46.78V54H35.9922V47.04C35.9922 46.3733 35.8189 45.86 35.4722 45.5C35.1255 45.14 34.6389 44.96 34.0122 44.96C33.3989 44.96 32.9122 45.1467 32.5522 45.52C32.2055 45.8933 32.0322 46.4267 32.0322 47.12V54H29.5322ZM45.5644 54.18C44.7244 54.18 43.991 54.0467 43.3644 53.78C42.7377 53.5133 42.2444 53.1467 41.8844 52.68C41.5377 52.2 41.351 51.64 41.3244 51H43.8244C43.851 51.3467 44.0177 51.6267 44.3244 51.84C44.6444 52.0533 45.0577 52.16 45.5644 52.16H46.4444C47.0577 52.16 47.5177 52.04 47.8244 51.8C48.131 51.56 48.2844 51.2333 48.2844 50.82C48.2844 50.4333 48.1444 50.1333 47.8644 49.92C47.5977 49.6933 47.1777 49.5467 46.6044 49.48L45.2444 49.28C43.991 49.1067 43.071 48.7733 42.4844 48.28C41.8977 47.7867 41.6044 47.0467 41.6044 46.06C41.6044 45.0333 41.951 44.24 42.6444 43.68C43.3377 43.1067 44.3577 42.82 45.7044 42.82H46.4644C47.691 42.82 48.671 43.0933 49.4044 43.64C50.1377 44.1867 50.531 44.92 50.5844 45.84H48.0844C48.0444 45.5467 47.8777 45.3067 47.5844 45.12C47.3044 44.9333 46.931 44.84 46.4644 44.84H45.7044C45.131 44.84 44.711 44.9467 44.4444 45.16C44.191 45.36 44.0644 45.66 44.0644 46.06C44.0644 46.4333 44.1777 46.7133 44.4044 46.9C44.631 47.0733 44.9977 47.2 45.5044 47.28L46.9244 47.48C48.231 47.6667 49.191 48.02 49.8044 48.54C50.431 49.0467 50.7444 49.8 50.7444 50.8C50.7444 51.8667 50.3777 52.7 49.6444 53.3C48.9244 53.8867 47.8577 54.18 46.4444 54.18H45.5644ZM58.0366 54.2C57.1032 54.2 56.2832 54.0267 55.5766 53.68C54.8832 53.32 54.3432 52.82 53.9566 52.18C53.5699 51.5267 53.3766 50.76 53.3766 49.88V47.12C53.3766 46.2267 53.5699 45.46 53.9566 44.82C54.3432 44.18 54.8832 43.6867 55.5766 43.34C56.2832 42.98 57.1032 42.8 58.0366 42.8C59.4232 42.8 60.5299 43.16 61.3566 43.88C62.1832 44.5867 62.6166 45.5533 62.6566 46.78H60.1566C60.1166 46.2067 59.9099 45.7667 59.5366 45.46C59.1766 45.14 58.6766 44.98 58.0366 44.98C57.3699 44.98 56.8432 45.1667 56.4566 45.54C56.0699 45.9 55.8766 46.42 55.8766 47.1V49.88C55.8766 50.56 56.0699 51.0867 56.4566 51.46C56.8432 51.8333 57.3699 52.02 58.0366 52.02C58.6766 52.02 59.1766 51.8667 59.5366 51.56C59.9099 51.24 60.1166 50.7933 60.1566 50.22H62.6566C62.6166 51.4467 62.1832 52.42 61.3566 53.14C60.5299 53.8467 59.4232 54.2 58.0366 54.2ZM65.8488 54V43H68.2088V45.1H68.8288L68.0888 46.38C68.0888 45.1933 68.3554 44.3 68.8888 43.7C69.4221 43.1 70.2088 42.8 71.2488 42.8C72.4354 42.8 73.3688 43.1667 74.0488 43.9C74.7288 44.6333 75.0688 45.6467 75.0688 46.94V47.74H72.4488V47.12C72.4488 46.4133 72.2621 45.8667 71.8888 45.48C71.5288 45.0933 71.0288 44.9 70.3888 44.9C69.7354 44.9 69.2288 45.0933 68.8688 45.48C68.5221 45.8667 68.3488 46.4133 68.3488 47.12V54H65.8488ZM77.4809 54V51.72H81.3209V45.26H77.9809V43H83.7209V51.72H87.1209V54H77.4809ZM82.3209 41.16C81.8143 41.16 81.4143 41.0333 81.1209 40.78C80.8276 40.5133 80.6809 40.16 80.6809 39.72C80.6809 39.28 80.8276 38.9333 81.1209 38.68C81.4143 38.4133 81.8143 38.28 82.3209 38.28C82.8276 38.28 83.2276 38.4133 83.5209 38.68C83.8143 38.9333 83.9609 39.28 83.9609 39.72C83.9609 40.16 83.8143 40.5133 83.5209 40.78C83.2276 41.0333 82.8276 41.16 82.3209 41.16ZM91.9531 58.32V57.04H93.4531C93.7731 57.04 94.0265 56.96 94.2131 56.8C94.4131 56.6533 94.5131 56.4933 94.5131 56.32C94.5131 56.0533 94.3131 55.8267 93.9131 55.64C93.5265 55.4667 92.9865 55.38 92.2931 55.38L92.9931 53.6H94.3131L93.9131 54.74C94.2998 54.78 94.6931 54.8667 95.0931 55C95.5065 55.1333 95.8531 55.3267 96.1331 55.58C96.4265 55.8467 96.5731 56.1733 96.5731 56.56C96.5731 57.0267 96.3331 57.4333 95.8531 57.78C95.3731 58.14 94.7331 58.32 93.9331 58.32H91.9531ZM94.0131 54.2C93.0798 54.2 92.2598 54.0267 91.5531 53.68C90.8598 53.32 90.3198 52.82 89.9331 52.18C89.5465 51.5267 89.3531 50.76 89.3531 49.88V47.12C89.3531 46.2267 89.5465 45.46 89.9331 44.82C90.3198 44.18 90.8598 43.6867 91.5531 43.34C92.2598 42.98 93.0798 42.8 94.0131 42.8C95.3998 42.8 96.5065 43.16 97.3331 43.88C98.1598 44.5867 98.5931 45.5533 98.6331 46.78H96.1331C96.0931 46.2067 95.8865 45.7667 95.5131 45.46C95.1531 45.14 94.6531 44.98 94.0131 44.98C93.3465 44.98 92.8198 45.1667 92.4331 45.54C92.0465 45.9 91.8531 46.42 91.8531 47.1V49.88C91.8531 50.56 92.0465 51.0867 92.4331 51.46C92.8198 51.8333 93.3465 52.02 94.0131 52.02C94.6531 52.02 95.1531 51.8667 95.5131 51.56C95.8865 51.24 96.0931 50.7933 96.1331 50.22H98.6331C98.5931 51.4467 98.1598 52.42 97.3331 53.14C96.5065 53.8467 95.3998 54.2 94.0131 54.2ZM104.725 54.2C103.592 54.2 102.699 53.9 102.045 53.3C101.392 52.7 101.065 51.8933 101.065 50.88C101.065 49.8 101.425 48.9667 102.145 48.38C102.865 47.7933 103.885 47.5 105.205 47.5H107.945V46.56C107.945 46.0267 107.772 45.6133 107.425 45.32C107.079 45.0133 106.605 44.86 106.005 44.86C105.459 44.86 105.005 44.98 104.645 45.22C104.285 45.46 104.072 45.7867 104.005 46.2H101.565C101.685 45.16 102.152 44.3333 102.965 43.72C103.779 43.1067 104.819 42.8 106.085 42.8C107.432 42.8 108.492 43.14 109.265 43.82C110.052 44.4867 110.445 45.3933 110.445 46.54V54H108.025V52.08H107.625L108.025 51.54C108.025 52.3533 107.725 53 107.125 53.48C106.525 53.96 105.725 54.2 104.725 54.2ZM105.545 52.32C106.252 52.32 106.825 52.14 107.265 51.78C107.719 51.42 107.945 50.9533 107.945 50.38V49.04H105.245C104.739 49.04 104.332 49.1867 104.025 49.48C103.719 49.7733 103.565 50.16 103.565 50.64C103.565 51.16 103.739 51.5733 104.085 51.88C104.445 52.1733 104.932 52.32 105.545 52.32ZM107.445 41.18C107.032 41.18 106.692 41.12 106.425 41C106.172 40.8667 105.959 40.7133 105.785 40.54C105.612 40.3667 105.445 40.22 105.285 40.1C105.139 39.9667 104.959 39.9 104.745 39.9C104.572 39.9 104.425 39.96 104.305 40.08C104.199 40.1867 104.145 40.3467 104.145 40.56V41.08H102.605V40.42C102.605 39.7667 102.792 39.24 103.165 38.84C103.552 38.4267 104.045 38.22 104.645 38.22C105.059 38.22 105.392 38.2867 105.645 38.42C105.912 38.54 106.132 38.6867 106.305 38.86C106.479 39.0333 106.639 39.1867 106.785 39.32C106.945 39.44 107.132 39.5 107.345 39.5C107.532 39.5 107.679 39.4533 107.785 39.36C107.892 39.2533 107.945 39.0933 107.945 38.88V38.32H109.485V38.98C109.485 39.6333 109.299 40.1667 108.925 40.58C108.552 40.98 108.059 41.18 107.445 41.18ZM117.938 54.18C117.004 54.18 116.191 54.0067 115.498 53.66C114.818 53.3 114.284 52.8 113.898 52.16C113.524 51.5067 113.338 50.74 113.338 49.86V47.14C113.338 46.26 113.524 45.5 113.898 44.86C114.284 44.2067 114.818 43.7067 115.498 43.36C116.191 43 117.004 42.82 117.938 42.82C118.884 42.82 119.698 43 120.378 43.36C121.058 43.7067 121.584 44.2067 121.958 44.86C122.344 45.5 122.538 46.2533 122.538 47.12V49.86C122.538 50.74 122.344 51.5067 121.958 52.16C121.584 52.8 121.058 53.3 120.378 53.66C119.698 54.0067 118.884 54.18 117.938 54.18ZM117.938 52C118.604 52 119.118 51.82 119.478 51.46C119.851 51.0867 120.038 50.5533 120.038 49.86V47.14C120.038 46.4333 119.851 45.9 119.478 45.54C119.118 45.18 118.604 45 117.938 45C117.284 45 116.771 45.18 116.398 45.54C116.024 45.9 115.838 46.4333 115.838 47.14V49.86C115.838 50.5533 116.024 51.0867 116.398 51.46C116.771 51.82 117.284 52 117.938 52ZM22.02 80.2C21.0867 80.2 20.2733 80.02 19.58 79.66C18.8867 79.3 18.3467 78.8 17.96 78.16C17.5867 77.5067 17.4 76.7467 17.4 75.88V73.12C17.4 72.2533 17.5867 71.5 17.96 70.86C18.3467 70.2067 18.8867 69.7 19.58 69.34C20.2733 68.98 21.0867 68.8 22.02 68.8C22.94 68.8 23.74 68.98 24.42 69.34C25.1133 69.7 25.6467 70.2067 26.02 70.86C26.4067 71.5 26.6 72.2533 26.6 73.12V75.1H19.82V75.88C19.82 76.6533 20.0067 77.24 20.38 77.64C20.7533 78.0267 21.3067 78.22 22.04 78.22C22.6 78.22 23.0533 78.1267 23.4 77.94C23.7467 77.74 23.9667 77.4533 24.06 77.08H26.52C26.3333 78.0267 25.8267 78.7867 25 79.36C24.1867 79.92 23.1933 80.2 22.02 80.2ZM24.18 73.7V73.1C24.18 72.34 24 71.76 23.64 71.36C23.28 70.9467 22.74 70.74 22.02 70.74C21.3 70.74 20.7533 70.9467 20.38 71.36C20.0067 71.7733 19.82 72.36 19.82 73.12V73.54L24.36 73.5L24.18 73.7ZM29.0322 80V69H31.0722V70.48H31.4922L31.1522 70.84C31.1522 70.2267 31.3255 69.7333 31.6722 69.36C32.0189 68.9867 32.4655 68.8 33.0122 68.8C33.5989 68.8 34.0522 69.04 34.3722 69.52C34.7055 70 34.8722 70.6467 34.8722 71.46L34.4322 70.48H35.1122L34.8522 70.84C34.8522 70.2267 35.0255 69.7333 35.3722 69.36C35.7189 68.9867 36.1789 68.8 36.7522 68.8C37.4322 68.8 37.9722 69.0533 38.3722 69.56C38.7722 70.0667 38.9722 70.7533 38.9722 71.62V80H36.7722V71.72C36.7722 71.36 36.6922 71.08 36.5322 70.88C36.3722 70.6667 36.1389 70.56 35.8322 70.56C35.5389 70.56 35.3055 70.66 35.1322 70.86C34.9722 71.06 34.8922 71.3467 34.8922 71.72V80H33.0922V71.72C33.0922 71.3467 33.0122 71.06 32.8522 70.86C32.6922 70.66 32.4589 70.56 32.1522 70.56C31.8455 70.56 31.6122 70.66 31.4522 70.86C31.3055 71.06 31.2322 71.3467 31.2322 71.72V80H29.0322ZM53.7366 80V65.4H62.4966V67.58H56.1966V71.38H61.7966V73.54H56.1966V77.82H62.4966V80H53.7366ZM68.3688 80L64.7488 69H67.3088L69.4088 75.68C69.5288 76.08 69.6421 76.4933 69.7488 76.92C69.8688 77.3467 69.9554 77.6867 70.0088 77.94C70.0754 77.6867 70.1621 77.3467 70.2688 76.92C70.3754 76.4933 70.4821 76.0867 70.5888 75.7L72.6488 69H75.1888L71.5888 80H68.3688ZM81.9809 80.2C81.0476 80.2 80.2343 80.02 79.5409 79.66C78.8476 79.3 78.3076 78.8 77.9209 78.16C77.5476 77.5067 77.3609 76.7467 77.3609 75.88V73.12C77.3609 72.2533 77.5476 71.5 77.9209 70.86C78.3076 70.2067 78.8476 69.7 79.5409 69.34C80.2343 68.98 81.0476 68.8 81.9809 68.8C82.9009 68.8 83.7009 68.98 84.3809 69.34C85.0743 69.7 85.6076 70.2067 85.9809 70.86C86.3676 71.5 86.5609 72.2533 86.5609 73.12V75.1H79.7809V75.88C79.7809 76.6533 79.9676 77.24 80.3409 77.64C80.7143 78.0267 81.2676 78.22 82.0009 78.22C82.5609 78.22 83.0143 78.1267 83.3609 77.94C83.7076 77.74 83.9276 77.4533 84.0209 77.08H86.4809C86.2943 78.0267 85.7876 78.7867 84.9609 79.36C84.1476 79.92 83.1543 80.2 81.9809 80.2ZM84.1409 73.7V73.1C84.1409 72.34 83.9609 71.76 83.6009 71.36C83.2409 70.9467 82.7009 70.74 81.9809 70.74C81.2609 70.74 80.7143 70.9467 80.3409 71.36C79.9676 71.7733 79.7809 72.36 79.7809 73.12V73.54L84.3209 73.5L84.1409 73.7ZM89.4931 80V69H91.9331V71.1H92.6131L91.9331 71.68C91.9331 70.7733 92.1931 70.0667 92.7131 69.56C93.2465 69.0533 93.9731 68.8 94.8931 68.8C95.9731 68.8 96.8331 69.16 97.4731 69.88C98.1265 70.6 98.4531 71.5667 98.4531 72.78V80H95.9531V73.04C95.9531 72.3733 95.7798 71.86 95.4331 71.5C95.0865 71.14 94.5998 70.96 93.9731 70.96C93.3598 70.96 92.8731 71.1467 92.5131 71.52C92.1665 71.8933 91.9931 72.4267 91.9931 73.12V80H89.4931ZM107.145 80C106.092 80 105.265 79.7067 104.665 79.12C104.079 78.5333 103.785 77.7267 103.785 76.7V71.26H100.805V69H103.785V65.9H106.305V69H110.525V71.26H106.305V76.7C106.305 77.3933 106.645 77.74 107.325 77.74H110.325V80H107.145ZM117.938 80.18C117.004 80.18 116.191 80.0067 115.498 79.66C114.818 79.3 114.284 78.8 113.898 78.16C113.524 77.5067 113.338 76.74 113.338 75.86V73.14C113.338 72.26 113.524 71.5 113.898 70.86C114.284 70.2067 114.818 69.7067 115.498 69.36C116.191 69 117.004 68.82 117.938 68.82C118.884 68.82 119.698 69 120.378 69.36C121.058 69.7067 121.584 70.2067 121.958 70.86C122.344 71.5 122.538 72.2533 122.538 73.12V75.86C122.538 76.74 122.344 77.5067 121.958 78.16C121.584 78.8 121.058 79.3 120.378 79.66C119.698 80.0067 118.884 80.18 117.938 80.18ZM117.938 78C118.604 78 119.118 77.82 119.478 77.46C119.851 77.0867 120.038 76.5533 120.038 75.86V73.14C120.038 72.4333 119.851 71.9 119.478 71.54C119.118 71.18 118.604 71 117.938 71C117.284 71 116.771 71.18 116.398 71.54C116.024 71.9 115.838 72.4333 115.838 73.14V75.86C115.838 76.5533 116.024 77.0867 116.398 77.46C116.771 77.82 117.284 78 117.938 78ZM129.51 80.18C128.67 80.18 127.936 80.0467 127.31 79.78C126.683 79.5133 126.19 79.1467 125.83 78.68C125.483 78.2 125.296 77.64 125.27 77H127.77C127.796 77.3467 127.963 77.6267 128.27 77.84C128.59 78.0533 129.003 78.16 129.51 78.16H130.39C131.003 78.16 131.463 78.04 131.77 77.8C132.076 77.56 132.23 77.2333 132.23 76.82C132.23 76.4333 132.09 76.1333 131.81 75.92C131.543 75.6933 131.123 75.5467 130.55 75.48L129.19 75.28C127.936 75.1067 127.016 74.7733 126.43 74.28C125.843 73.7867 125.55 73.0467 125.55 72.06C125.55 71.0333 125.896 70.24 126.59 69.68C127.283 69.1067 128.303 68.82 129.65 68.82H130.41C131.636 68.82 132.616 69.0933 133.35 69.64C134.083 70.1867 134.476 70.92 134.53 71.84H132.03C131.99 71.5467 131.823 71.3067 131.53 71.12C131.25 70.9333 130.876 70.84 130.41 70.84H129.65C129.076 70.84 128.656 70.9467 128.39 71.16C128.136 71.36 128.01 71.66 128.01 72.06C128.01 72.4333 128.123 72.7133 128.35 72.9C128.576 73.0733 128.943 73.2 129.45 73.28L130.87 73.48C132.176 73.6667 133.136 74.02 133.75 74.54C134.376 75.0467 134.69 75.8 134.69 76.8C134.69 77.8667 134.323 78.7 133.59 79.3C132.87 79.8867 131.803 80.18 130.39 80.18H129.51Z" fill="black"/>
</g>
<defs>
<filter id="filter0_d_2370_245" x="144" y="22" width="82" height="82" filterUnits="userSpaceOnUse" color-interpolation-filters="sRGB">
<feFlood flood-opacity="0" result="BackgroundImageFix"/>
<feColorMatrix in="SourceAlpha" type="matrix" values="0 0 0 0 0 0 0 0 0 0 0 0 0 0 0 0 0 0 127 0" result="hardAlpha"/>
<feOffset dx="-3" dy="3"/>
<feGaussianBlur stdDeviation="2.5"/>
<feComposite in2="hardAlpha" operator="out"/>
<feColorMatrix type="matrix" values="0 0 0 0 0 0 0 0 0 0 0 0 0 0 0 0 0 0 0.25 0"/>
<feBlend mode="normal" in2="BackgroundImageFix" result="effect1_dropShadow_2370_245"/>
<feBlend mode="normal" in="SourceGraphic" in2="effect1_dropShadow_2370_245" result="shape"/>
</filter>
<clipPath id="clip0_2370_245">
<rect width="250" height="120" fill="white"/>
</clipPath>
</defs>
</svg>
