<svg width="280" height="134" viewBox="0 0 280 134" fill="none" xmlns="http://www.w3.org/2000/svg">
<g clip-path="url(#clip0_1_44)">
<rect width="280" height="134" fill="white"/>
<mask id="mask0_1_44" style="mask-type:luminance" maskUnits="userSpaceOnUse" x="0" y="-17" width="280" height="168">
<path d="M280 -17H0V151H280V-17Z" fill="white"/>
</mask>
<g mask="url(#mask0_1_44)">
<path d="M280 -17H0V151H280V-17Z" fill="white"/>
<path d="M243.6 127.2C313.188 127.2 369.6 70.7879 369.6 1.2C369.6 -68.3879 313.188 -124.8 243.6 -124.8C174.012 -124.8 117.6 -68.3879 117.6 1.2C117.6 70.7879 174.012 127.2 243.6 127.2Z" fill="#BBAACC"/>
</g>
<g filter="url(#filter0_d_1_44)">
<rect x="26" y="33" width="68" height="68" rx="12" fill="white"/>
</g>
<path d="M54.3333 70.8672C54.3333 72.9942 55.9907 74.7344 58.007 74.7344H62.1505C63.9182 74.7344 65.3546 73.2152 65.3546 71.3645C65.3546 69.348 64.4707 68.6299 63.1725 68.1603L56.543 65.8399C55.2172 65.3703 54.3333 64.6522 54.3333 62.6357C54.3333 60.7849 55.7697 59.2657 57.5376 59.2657H61.6809C63.725 59.2933 65.3822 61.0059 65.3822 63.1329" stroke="#322E54" stroke-width="4" stroke-linecap="round" stroke-linejoin="round"/>
<path d="M60.1826 74.8726V76.9167" stroke="#322E54" stroke-width="4" stroke-linecap="round" stroke-linejoin="round"/>
<path d="M60.1826 57.0833V59.2379" stroke="#322E54" stroke-width="4" stroke-linecap="round" stroke-linejoin="round"/>
<path d="M60 86.8333C70.9538 86.8333 79.8333 77.9538 79.8333 67C79.8333 56.0463 70.9538 47.1667 60 47.1667C49.0463 47.1667 40.1667 56.0463 40.1667 67C40.1667 77.9538 49.0463 86.8333 60 86.8333Z" stroke="#322E54" stroke-width="4" stroke-linecap="round" stroke-linejoin="round"/>
<path d="M118.34 43.0117C120.154 43.0117 121.648 43.2305 122.824 43.668C124.009 44.1055 124.889 44.7663 125.463 45.6504C126.037 46.5345 126.324 47.651 126.324 49C126.324 49.9115 126.151 50.709 125.805 51.3926C125.458 52.0762 125.003 52.6549 124.438 53.1289C123.872 53.6029 123.262 53.9902 122.605 54.291L128.484 63H123.781L119.01 55.3301H116.754V63H112.516V43.0117H118.34ZM118.039 46.4844H116.754V51.8848H118.121C119.525 51.8848 120.527 51.6523 121.129 51.1875C121.74 50.7135 122.045 50.0208 122.045 49.1094C122.045 48.1615 121.717 47.487 121.061 47.0859C120.413 46.6849 119.406 46.4844 118.039 46.4844ZM136.975 47.4277C138.387 47.4277 139.604 47.7012 140.625 48.248C141.646 48.7858 142.434 49.5697 142.99 50.5996C143.546 51.6296 143.824 52.8874 143.824 54.373V56.3965H133.967C134.012 57.5723 134.363 58.4974 135.02 59.1719C135.685 59.8372 136.605 60.1699 137.781 60.1699C138.757 60.1699 139.65 60.0697 140.461 59.8691C141.272 59.6686 142.106 59.3678 142.963 58.9668V62.1934C142.206 62.5671 141.413 62.8405 140.584 63.0137C139.764 63.1868 138.766 63.2734 137.59 63.2734C136.059 63.2734 134.701 62.9909 133.516 62.4258C132.34 61.8607 131.415 60.9993 130.74 59.8418C130.075 58.6842 129.742 57.2259 129.742 55.4668C129.742 53.6803 130.043 52.1947 130.645 51.0098C131.255 49.8158 132.103 48.9225 133.188 48.3301C134.272 47.7285 135.535 47.4277 136.975 47.4277ZM137.002 50.3945C136.191 50.3945 135.516 50.6543 134.979 51.1738C134.45 51.6934 134.145 52.5091 134.062 53.6211H139.914C139.905 53.0013 139.791 52.4499 139.572 51.9668C139.363 51.4837 139.044 51.1009 138.615 50.8184C138.196 50.5358 137.658 50.3945 137.002 50.3945ZM155.896 47.4277C157.528 47.4277 158.84 47.8743 159.834 48.7676C160.827 49.6517 161.324 51.0736 161.324 53.0332V63H157.154V54.0723C157.154 52.9785 156.954 52.1536 156.553 51.5977C156.161 51.0417 155.541 50.7637 154.693 50.7637C153.417 50.7637 152.547 51.1966 152.082 52.0625C151.617 52.9284 151.385 54.1771 151.385 55.8086V63H147.215V47.7148H150.4L150.961 49.6699H151.193C151.521 49.1413 151.927 48.7129 152.41 48.3848C152.902 48.0566 153.445 47.8151 154.037 47.6602C154.639 47.5052 155.258 47.4277 155.896 47.4277ZM172.057 59.9512C172.512 59.9512 172.954 59.9056 173.383 59.8145C173.82 59.7233 174.253 59.6094 174.682 59.4727V62.5762C174.235 62.7767 173.679 62.9408 173.014 63.0684C172.357 63.2051 171.637 63.2734 170.854 63.2734C169.942 63.2734 169.122 63.1276 168.393 62.8359C167.673 62.5352 167.103 62.0202 166.684 61.291C166.273 60.5527 166.068 59.5273 166.068 58.2148V50.8457H164.072V49.082L166.369 47.6875L167.572 44.4609H170.238V47.7148H174.518V50.8457H170.238V58.2148C170.238 58.7982 170.402 59.2357 170.73 59.5273C171.068 59.8099 171.51 59.9512 172.057 59.9512ZM121.006 74.252C120.195 74.252 119.475 74.4115 118.846 74.7305C118.226 75.0404 117.702 75.4915 117.273 76.084C116.854 76.6764 116.535 77.3919 116.316 78.2305C116.098 79.069 115.988 80.0124 115.988 81.0605C115.988 82.4733 116.161 83.681 116.508 84.6836C116.863 85.6771 117.41 86.4382 118.148 86.9668C118.887 87.4863 119.839 87.7461 121.006 87.7461C121.817 87.7461 122.628 87.6549 123.439 87.4727C124.26 87.2904 125.148 87.0306 126.105 86.6934V90.248C125.221 90.6126 124.351 90.8724 123.494 91.0273C122.637 91.1914 121.676 91.2734 120.609 91.2734C118.549 91.2734 116.854 90.8496 115.523 90.002C114.202 89.1452 113.222 87.9512 112.584 86.4199C111.946 84.8796 111.627 83.084 111.627 81.0332C111.627 79.5202 111.832 78.1348 112.242 76.877C112.652 75.6191 113.254 74.5299 114.047 73.6094C114.84 72.6888 115.82 71.9779 116.986 71.4766C118.153 70.9753 119.493 70.7246 121.006 70.7246C121.999 70.7246 122.993 70.8522 123.986 71.1074C124.989 71.3535 125.946 71.6953 126.857 72.1328L125.49 75.5781C124.743 75.2227 123.991 74.9128 123.234 74.6484C122.478 74.3841 121.735 74.252 121.006 74.252ZM136.305 75.4004C138.355 75.4004 139.928 75.847 141.021 76.7402C142.115 77.6335 142.662 78.9915 142.662 80.8145V91H139.75L138.943 88.9219H138.834C138.396 89.4688 137.95 89.9154 137.494 90.2617C137.038 90.6081 136.514 90.8633 135.922 91.0273C135.329 91.1914 134.609 91.2734 133.762 91.2734C132.859 91.2734 132.048 91.1003 131.328 90.7539C130.617 90.4076 130.057 89.8789 129.646 89.168C129.236 88.4479 129.031 87.5365 129.031 86.4336C129.031 84.8112 129.601 83.6172 130.74 82.8516C131.88 82.0768 133.589 81.6484 135.867 81.5664L138.52 81.4844V80.8145C138.52 80.0124 138.31 79.4245 137.891 79.0508C137.471 78.6771 136.888 78.4902 136.141 78.4902C135.402 78.4902 134.678 78.5951 133.967 78.8047C133.256 79.0143 132.545 79.2786 131.834 79.5977L130.453 76.7812C131.264 76.3529 132.171 76.0156 133.174 75.7695C134.186 75.5234 135.229 75.4004 136.305 75.4004ZM138.52 83.918L136.906 83.9727C135.557 84.0091 134.618 84.2507 134.09 84.6973C133.57 85.1439 133.311 85.7318 133.311 86.4609C133.311 87.099 133.497 87.5547 133.871 87.8281C134.245 88.0924 134.732 88.2246 135.334 88.2246C136.227 88.2246 136.979 87.9603 137.59 87.4316C138.21 86.903 138.52 86.151 138.52 85.1758V83.918ZM151.139 91H146.969V69.7266H151.139V91ZM161.734 91.2734C160.221 91.2734 158.932 91 157.865 90.4531C156.799 89.8971 155.988 89.0404 155.432 87.8828C154.876 86.7253 154.598 85.2441 154.598 83.4395C154.598 81.571 154.912 80.0488 155.541 78.873C156.179 77.6882 157.059 76.8177 158.18 76.2617C159.31 75.7057 160.618 75.4277 162.104 75.4277C163.161 75.4277 164.072 75.5326 164.838 75.7422C165.613 75.9427 166.287 76.1842 166.861 76.4668L165.631 79.6934C164.975 79.429 164.364 79.2148 163.799 79.0508C163.234 78.8776 162.669 78.791 162.104 78.791C161.374 78.791 160.768 78.9642 160.285 79.3105C159.802 79.6478 159.442 80.1582 159.205 80.8418C158.968 81.5254 158.85 82.3822 158.85 83.4121C158.85 84.4238 158.977 85.2624 159.232 85.9277C159.488 86.5931 159.857 87.0898 160.34 87.418C160.823 87.737 161.411 87.8965 162.104 87.8965C162.969 87.8965 163.74 87.7826 164.414 87.5547C165.089 87.3177 165.745 86.9896 166.383 86.5703V90.1387C165.745 90.5397 165.075 90.8268 164.373 91C163.68 91.1823 162.801 91.2734 161.734 91.2734ZM183.965 75.7148V91H180.766L180.205 89.0449H179.986C179.658 89.5645 179.248 89.9883 178.756 90.3164C178.264 90.6445 177.721 90.8861 177.129 91.041C176.536 91.196 175.921 91.2734 175.283 91.2734C174.189 91.2734 173.237 91.082 172.426 90.6992C171.615 90.3073 170.981 89.7012 170.525 88.8809C170.079 88.0605 169.855 86.9941 169.855 85.6816V75.7148H174.025V84.6426C174.025 85.7363 174.221 86.5612 174.613 87.1172C175.005 87.6732 175.63 87.9512 176.486 87.9512C177.334 87.9512 177.999 87.7598 178.482 87.377C178.965 86.985 179.303 86.4154 179.494 85.668C179.695 84.9115 179.795 83.9909 179.795 82.9062V75.7148H183.965ZM192.51 91H188.34V69.7266H192.51V91ZM203.16 75.4004C205.211 75.4004 206.783 75.847 207.877 76.7402C208.971 77.6335 209.518 78.9915 209.518 80.8145V91H206.605L205.799 88.9219H205.689C205.252 89.4688 204.805 89.9154 204.35 90.2617C203.894 90.6081 203.37 90.8633 202.777 91.0273C202.185 91.1914 201.465 91.2734 200.617 91.2734C199.715 91.2734 198.904 91.1003 198.184 90.7539C197.473 90.4076 196.912 89.8789 196.502 89.168C196.092 88.4479 195.887 87.5365 195.887 86.4336C195.887 84.8112 196.456 83.6172 197.596 82.8516C198.735 82.0768 200.444 81.6484 202.723 81.5664L205.375 81.4844V80.8145C205.375 80.0124 205.165 79.4245 204.746 79.0508C204.327 78.6771 203.743 78.4902 202.996 78.4902C202.258 78.4902 201.533 78.5951 200.822 78.8047C200.111 79.0143 199.4 79.2786 198.689 79.5977L197.309 76.7812C198.12 76.3529 199.027 76.0156 200.029 75.7695C201.041 75.5234 202.085 75.4004 203.16 75.4004ZM205.375 83.918L203.762 83.9727C202.413 84.0091 201.474 84.2507 200.945 84.6973C200.426 85.1439 200.166 85.7318 200.166 86.4609C200.166 87.099 200.353 87.5547 200.727 87.8281C201.1 88.0924 201.588 88.2246 202.189 88.2246C203.083 88.2246 203.835 87.9603 204.445 87.4316C205.065 86.903 205.375 86.151 205.375 85.1758V83.918ZM220.264 87.9512C220.719 87.9512 221.161 87.9056 221.59 87.8145C222.027 87.7233 222.46 87.6094 222.889 87.4727V90.5762C222.442 90.7767 221.886 90.9408 221.221 91.0684C220.564 91.2051 219.844 91.2734 219.061 91.2734C218.149 91.2734 217.329 91.1276 216.6 90.8359C215.88 90.5352 215.31 90.0202 214.891 89.291C214.48 88.5527 214.275 87.5273 214.275 86.2148V78.8457H212.279V77.082L214.576 75.6875L215.779 72.4609H218.445V75.7148H222.725V78.8457H218.445V86.2148C218.445 86.7982 218.609 87.2357 218.938 87.5273C219.275 87.8099 219.717 87.9512 220.264 87.9512ZM239.883 83.3301C239.883 84.6061 239.71 85.7363 239.363 86.7207C239.026 87.7051 238.529 88.5391 237.873 89.2227C237.226 89.8971 236.442 90.4076 235.521 90.7539C234.61 91.1003 233.58 91.2734 232.432 91.2734C231.356 91.2734 230.367 91.1003 229.465 90.7539C228.572 90.4076 227.792 89.8971 227.127 89.2227C226.471 88.5391 225.96 87.7051 225.596 86.7207C225.24 85.7363 225.062 84.6061 225.062 83.3301C225.062 81.6348 225.363 80.1992 225.965 79.0234C226.566 77.8477 227.423 76.9544 228.535 76.3438C229.647 75.7331 230.973 75.4277 232.514 75.4277C233.945 75.4277 235.212 75.7331 236.314 76.3438C237.426 76.9544 238.297 77.8477 238.926 79.0234C239.564 80.1992 239.883 81.6348 239.883 83.3301ZM229.314 83.3301C229.314 84.3327 229.424 85.1758 229.643 85.8594C229.861 86.543 230.203 87.0579 230.668 87.4043C231.133 87.7507 231.739 87.9238 232.486 87.9238C233.225 87.9238 233.822 87.7507 234.277 87.4043C234.742 87.0579 235.079 86.543 235.289 85.8594C235.508 85.1758 235.617 84.3327 235.617 83.3301C235.617 82.3184 235.508 81.4798 235.289 80.8145C235.079 80.14 234.742 79.6341 234.277 79.2969C233.812 78.9596 233.206 78.791 232.459 78.791C231.356 78.791 230.554 79.1693 230.053 79.9258C229.561 80.6823 229.314 81.8171 229.314 83.3301ZM251.859 75.4277C252.069 75.4277 252.311 75.4414 252.584 75.4688C252.867 75.487 253.094 75.5143 253.268 75.5508L252.953 79.4609C252.816 79.4154 252.62 79.3835 252.365 79.3652C252.119 79.3379 251.905 79.3242 251.723 79.3242C251.185 79.3242 250.661 79.3926 250.15 79.5293C249.649 79.666 249.198 79.8893 248.797 80.1992C248.396 80.5 248.077 80.901 247.84 81.4023C247.612 81.8945 247.498 82.5007 247.498 83.2207V91H243.328V75.7148H246.486L247.102 78.2852H247.307C247.607 77.7656 247.981 77.2917 248.428 76.8633C248.883 76.4258 249.398 76.0794 249.973 75.8242C250.556 75.5599 251.185 75.4277 251.859 75.4277Z" fill="#322E54"/>
</g>
<defs>
<filter id="filter0_d_1_44" x="21" y="30" width="76" height="76" filterUnits="userSpaceOnUse" color-interpolation-filters="sRGB">
<feFlood flood-opacity="0" result="BackgroundImageFix"/>
<feColorMatrix in="SourceAlpha" type="matrix" values="0 0 0 0 0 0 0 0 0 0 0 0 0 0 0 0 0 0 127 0" result="hardAlpha"/>
<feMorphology radius="1" operator="dilate" in="SourceAlpha" result="effect1_dropShadow_1_44"/>
<feOffset dx="-1" dy="1"/>
<feGaussianBlur stdDeviation="1.5"/>
<feComposite in2="hardAlpha" operator="out"/>
<feColorMatrix type="matrix" values="0 0 0 0 0 0 0 0 0 0 0 0 0 0 0 0 0 0 0.15 0"/>
<feBlend mode="normal" in2="BackgroundImageFix" result="effect1_dropShadow_1_44"/>
<feBlend mode="normal" in="SourceGraphic" in2="effect1_dropShadow_1_44" result="shape"/>
</filter>
<clipPath id="clip0_1_44">
<rect width="280" height="134" fill="white"/>
</clipPath>
</defs>
</svg>
