<svg width="250" height="120" viewBox="0 0 250 120" fill="none" xmlns="http://www.w3.org/2000/svg">
<g clip-path="url(#clip0_2362_62)">
<rect width="250" height="120" fill="white"/>
<path d="M212 95C253.421 95 287 61.4214 287 20C287 -21.4214 253.421 -55 212 -55C170.579 -55 137 -21.4214 137 20C137 61.4214 170.579 95 212 95Z" fill="#0073B1"/>
<path d="M22.644 55.22C21.544 55.22 20.5907 55.0367 19.784 54.67C18.992 54.2887 18.3687 53.7607 17.914 53.086C17.474 52.3967 17.254 51.59 17.254 50.666H20.004C20.004 51.326 20.246 51.854 20.73 52.25C21.214 52.6313 21.8593 52.822 22.666 52.822C23.458 52.822 24.074 52.6313 24.514 52.25C24.9687 51.8687 25.196 51.348 25.196 50.688C25.196 50.1453 25.042 49.6833 24.734 49.302C24.426 48.906 24.0007 48.6347 23.458 48.488L21.522 47.96C20.2753 47.6227 19.3073 47.0433 18.618 46.222C17.9287 45.386 17.584 44.3813 17.584 43.208C17.584 41.844 18.0387 40.7587 18.948 39.952C19.8573 39.1307 21.082 38.72 22.622 38.72C24.1767 38.72 25.4087 39.1233 26.318 39.93C27.242 40.722 27.704 41.7927 27.704 43.142H24.954C24.954 42.526 24.7413 42.0347 24.316 41.668C23.9053 41.3013 23.3333 41.118 22.6 41.118C21.8813 41.118 21.3167 41.3013 20.906 41.668C20.51 42.02 20.312 42.5187 20.312 43.164C20.312 43.6627 20.4587 44.0953 20.752 44.462C21.06 44.8287 21.5 45.0853 22.072 45.232L24.03 45.782C25.2767 46.1193 26.2373 46.706 26.912 47.542C27.6013 48.3633 27.946 49.3827 27.946 50.6C27.946 51.524 27.726 52.338 27.286 53.042C26.846 53.7313 26.23 54.2667 25.438 54.648C24.646 55.0293 23.7147 55.22 22.644 55.22ZM30.8634 55V52.514H34.9994V45.386H31.3034V42.9H37.7494V52.514H41.4674V55H30.8634ZM36.1874 40.876C35.6301 40.876 35.1901 40.7367 34.8674 40.458C34.5447 40.1647 34.3834 39.776 34.3834 39.292C34.3834 38.808 34.5447 38.4267 34.8674 38.148C35.1901 37.8547 35.6301 37.708 36.1874 37.708C36.7447 37.708 37.1847 37.8547 37.5074 38.148C37.8301 38.4267 37.9914 38.808 37.9914 39.292C37.9914 39.776 37.8301 40.1647 37.5074 40.458C37.1847 40.7367 36.7447 40.876 36.1874 40.876ZM50.3028 55C49.1735 55 48.2715 54.6773 47.5968 54.032C46.9368 53.372 46.6068 52.4847 46.6068 51.37V45.386H43.3288V42.9H46.6068V39.49H49.3788V42.9H54.0208V45.386H49.3788V51.304C49.3788 51.656 49.4741 51.9493 49.6648 52.184C49.8701 52.404 50.1488 52.514 50.5008 52.514H53.8008V55H50.3028ZM62.1962 55.22C61.1696 55.22 60.2749 55.022 59.5122 54.626C58.7496 54.23 58.1556 53.68 57.7302 52.976C57.3196 52.2573 57.1142 51.4213 57.1142 50.468V47.432C57.1142 46.4787 57.3196 45.65 57.7302 44.946C58.1556 44.2273 58.7496 43.67 59.5122 43.274C60.2749 42.878 61.1696 42.68 62.1962 42.68C63.2082 42.68 64.0882 42.878 64.8362 43.274C65.5989 43.67 66.1856 44.2273 66.5962 44.946C67.0216 45.65 67.2342 46.4787 67.2342 47.432V49.61H59.7762V50.468C59.7762 52.184 60.5902 53.042 62.2182 53.042C63.4796 53.042 64.2202 52.624 64.4402 51.788H67.1462C66.9409 52.8293 66.3836 53.6653 65.4742 54.296C64.5796 54.912 63.4869 55.22 62.1962 55.22ZM59.7762 47.432V47.894L64.5722 47.872V47.41C64.5722 46.574 64.3742 45.936 63.9782 45.496C63.5822 45.0413 62.9882 44.814 62.1962 44.814C61.3896 44.814 60.7809 45.0413 60.3702 45.496C59.9742 45.9507 59.7762 46.596 59.7762 47.432ZM17.694 84V67.94H23.04C24.1107 67.94 25.042 68.1453 25.834 68.556C26.6407 68.9667 27.264 69.546 27.704 70.294C28.144 71.0273 28.364 71.8927 28.364 72.89C28.364 73.8873 28.144 74.76 27.704 75.508C27.264 76.2413 26.6407 76.8133 25.834 77.224C25.042 77.6347 24.1107 77.84 23.04 77.84H20.444V84H17.694ZM20.444 75.42H23.04C23.8173 75.42 24.4333 75.1853 24.888 74.716C25.3427 74.2467 25.57 73.638 25.57 72.89C25.57 72.142 25.3427 71.5333 24.888 71.064C24.4333 70.5947 23.8173 70.36 23.04 70.36H20.444V75.42ZM35.7914 84.198C34.2367 84.198 33.0047 83.7727 32.0954 82.922C31.1861 82.0567 30.7314 80.898 30.7314 79.446V76.454C30.7314 75.002 31.1861 73.8507 32.0954 73C33.0047 72.1347 34.2367 71.702 35.7914 71.702C37.3461 71.702 38.5781 72.1347 39.4874 73C40.3967 73.8507 40.8514 74.9947 40.8514 76.432V79.446C40.8514 80.898 40.3967 82.0567 39.4874 82.922C38.5781 83.7727 37.3461 84.198 35.7914 84.198ZM35.7914 81.8C36.5247 81.8 37.0894 81.602 37.4854 81.206C37.8961 80.7953 38.1014 80.2087 38.1014 79.446V76.454C38.1014 75.6913 37.8961 75.112 37.4854 74.716C37.0894 74.3053 36.5247 74.1 35.7914 74.1C35.0581 74.1 34.4861 74.3053 34.0754 74.716C33.6794 75.112 33.4814 75.6913 33.4814 76.454V79.446C33.4814 80.2087 33.6794 80.7953 34.0754 81.206C34.4861 81.602 35.0581 81.8 35.7914 81.8ZM44.4288 84V71.9H47.1128V74.21H47.1788C47.2961 73.418 47.6481 72.802 48.2348 72.362C48.8215 71.9073 49.5695 71.68 50.4788 71.68C51.7255 71.68 52.7228 72.0907 53.4708 72.912C54.2188 73.7187 54.5928 74.826 54.5928 76.234V77.224H51.7108V76.432C51.7108 75.684 51.5128 75.1047 51.1168 74.694C50.7355 74.2687 50.1781 74.056 49.4448 74.056C47.9341 74.056 47.1788 74.8993 47.1788 76.586V84H44.4288ZM63.4942 84C62.3649 84 61.4629 83.6773 60.7882 83.032C60.1282 82.372 59.7982 81.4847 59.7982 80.37V74.386H56.5202V71.9H59.7982V68.49H62.5702V71.9H67.2122V74.386H62.5702V80.304C62.5702 80.656 62.6656 80.9493 62.8562 81.184C63.0616 81.404 63.3402 81.514 63.6922 81.514H66.9922V84H63.4942ZM73.2756 84V75.728H69.9536V73.242H73.2756V71.416C73.2756 70.36 73.6276 69.5167 74.3316 68.886C75.0356 68.2553 75.967 67.94 77.1256 67.94H80.6676V70.36H77.1916C76.8396 70.36 76.5536 70.4627 76.3336 70.668C76.1283 70.8587 76.0256 71.1227 76.0256 71.46V73.242H80.6676V75.728H76.0256V84H73.2756ZM88.557 84.198C87.0024 84.198 85.7704 83.7727 84.861 82.922C83.9517 82.0567 83.497 80.898 83.497 79.446V76.454C83.497 75.002 83.9517 73.8507 84.861 73C85.7704 72.1347 87.0024 71.702 88.557 71.702C90.1117 71.702 91.3437 72.1347 92.253 73C93.1624 73.8507 93.617 74.9947 93.617 76.432V79.446C93.617 80.898 93.1624 82.0567 92.253 82.922C91.3437 83.7727 90.1117 84.198 88.557 84.198ZM88.557 81.8C89.2904 81.8 89.855 81.602 90.251 81.206C90.6617 80.7953 90.867 80.2087 90.867 79.446V76.454C90.867 75.6913 90.6617 75.112 90.251 74.716C89.855 74.3053 89.2904 74.1 88.557 74.1C87.8237 74.1 87.2517 74.3053 86.841 74.716C86.445 75.112 86.247 75.6913 86.247 76.454V79.446C86.247 80.2087 86.445 80.7953 86.841 81.206C87.2517 81.602 87.8237 81.8 88.557 81.8ZM103.706 84C102.504 84 101.536 83.6407 100.802 82.922C100.084 82.2033 99.7244 81.2573 99.7244 80.084V70.426H95.7424V67.94H102.474V80.018C102.474 80.4727 102.599 80.8393 102.848 81.118C103.112 81.382 103.464 81.514 103.904 81.514H107.446V84H103.706ZM110.012 84V81.514H114.148V74.386H110.452V71.9H116.898V81.514H120.616V84H110.012ZM115.336 69.876C114.779 69.876 114.339 69.7367 114.016 69.458C113.693 69.1647 113.532 68.776 113.532 68.292C113.532 67.808 113.693 67.4267 114.016 67.148C114.339 66.8547 114.779 66.708 115.336 66.708C115.893 66.708 116.333 66.8547 116.656 67.148C116.979 67.4267 117.14 67.808 117.14 68.292C117.14 68.776 116.979 69.1647 116.656 69.458C116.333 69.7367 115.893 69.876 115.336 69.876ZM128.131 84.198C126.577 84.198 125.345 83.7727 124.435 82.922C123.526 82.0567 123.071 80.898 123.071 79.446V76.454C123.071 75.002 123.526 73.8507 124.435 73C125.345 72.1347 126.577 71.702 128.131 71.702C129.686 71.702 130.918 72.1347 131.827 73C132.737 73.8507 133.191 74.9947 133.191 76.432V79.446C133.191 80.898 132.737 82.0567 131.827 82.922C130.918 83.7727 129.686 84.198 128.131 84.198ZM128.131 81.8C128.865 81.8 129.429 81.602 129.825 81.206C130.236 80.7953 130.441 80.2087 130.441 79.446V76.454C130.441 75.6913 130.236 75.112 129.825 74.716C129.429 74.3053 128.865 74.1 128.131 74.1C127.398 74.1 126.826 74.3053 126.415 74.716C126.019 75.112 125.821 75.6913 125.821 76.454V79.446C125.821 80.2087 126.019 80.7953 126.415 81.206C126.826 81.602 127.398 81.8 128.131 81.8Z" fill="black"/>
<g filter="url(#filter0_d_2362_62)">
<path d="M208 24H168C159.163 24 152 31.1634 152 40V80C152 88.8366 159.163 96 168 96H208C216.837 96 224 88.8366 224 80V40C224 31.1634 216.837 24 208 24Z" fill="white"/>
<g clip-path="url(#clip1_2362_62)">
<path d="M188 41.2246C198.369 41.2246 206.775 49.6309 206.775 60C206.775 70.3691 198.369 78.7754 188 78.7754C177.631 78.7754 169.225 70.3691 169.225 60C169.225 49.6309 177.631 41.2246 188 41.2246Z" stroke="#0073B1" stroke-width="2.45"/>
<path d="M184.547 70.5628C183.739 70.5628 183.013 70.3906 182.369 70.0463C181.74 69.702 181.254 69.2154 180.909 68.5867C180.58 67.9729 180.445 67.2468 180.505 66.4084L180.73 63.1523C180.76 62.6732 180.625 62.2915 180.326 62.007C180.026 61.7226 179.637 61.5804 179.158 61.5804H176.351V58.4365H179.158C179.637 58.4365 180.026 58.2943 180.326 58.0098C180.625 57.7104 180.76 57.3287 180.73 56.8646L180.505 53.4737C180.46 52.6503 180.603 51.9392 180.932 51.3404C181.261 50.7266 181.74 50.255 182.369 49.9256C182.998 49.5962 183.724 49.4316 184.547 49.4316H186.456V52.5754H185.221C184.802 52.5754 184.465 52.6802 184.211 52.8898C183.956 53.0994 183.844 53.4438 183.874 53.9228L184.098 57.3137C184.158 58.1371 183.866 58.8033 183.222 59.3123C182.594 59.8063 181.725 60.0533 180.618 60.0533V59.8961C181.725 59.8961 182.594 60.1581 183.222 60.6821C183.866 61.1911 184.158 61.8648 184.098 62.7032L183.874 66.0716C183.859 66.4758 183.979 66.8052 184.233 67.0597C184.487 67.2992 184.817 67.4189 185.221 67.4189H186.456V70.5628H184.547ZM189.816 70.5628V67.4189H191.051C191.455 67.4189 191.784 67.2992 192.039 67.0597C192.308 66.8052 192.428 66.4758 192.398 66.0716L192.174 62.7032C192.114 61.8648 192.406 61.1911 193.049 60.6821C193.693 60.1581 194.562 59.8961 195.654 59.8961V60.0533C194.562 60.0533 193.693 59.8063 193.049 59.3123C192.406 58.8033 192.114 58.1371 192.174 57.3137L192.398 53.9228C192.428 53.4438 192.316 53.0994 192.061 52.8898C191.822 52.6802 191.485 52.5754 191.051 52.5754H189.816V49.4316H191.725C192.548 49.4316 193.274 49.5962 193.903 49.9256C194.532 50.255 195.011 50.7266 195.34 51.3404C195.684 51.9392 195.827 52.6503 195.767 53.4737L195.542 56.8646C195.512 57.3287 195.647 57.7104 195.946 58.0098C196.261 58.2943 196.65 58.4365 197.114 58.4365H199.921V61.5804H197.114C196.65 61.5804 196.261 61.7226 195.946 62.007C195.647 62.2915 195.512 62.6732 195.542 63.1523L195.767 66.4084C195.827 67.2468 195.684 67.9729 195.34 68.5867C195.011 69.2154 194.532 69.702 193.903 70.0463C193.274 70.3906 192.548 70.5628 191.725 70.5628H189.816Z" fill="#0073B1"/>
</g>
</g>
</g>
<defs>
<filter id="filter0_d_2362_62" x="144" y="22" width="82" height="82" filterUnits="userSpaceOnUse" color-interpolation-filters="sRGB">
<feFlood flood-opacity="0" result="BackgroundImageFix"/>
<feColorMatrix in="SourceAlpha" type="matrix" values="0 0 0 0 0 0 0 0 0 0 0 0 0 0 0 0 0 0 127 0" result="hardAlpha"/>
<feOffset dx="-3" dy="3"/>
<feGaussianBlur stdDeviation="2.5"/>
<feComposite in2="hardAlpha" operator="out"/>
<feColorMatrix type="matrix" values="0 0 0 0 0 0 0 0 0 0 0 0 0 0 0 0 0 0 0.25 0"/>
<feBlend mode="normal" in2="BackgroundImageFix" result="effect1_dropShadow_2362_62"/>
<feBlend mode="normal" in="SourceGraphic" in2="effect1_dropShadow_2362_62" result="shape"/>
</filter>
<clipPath id="clip0_2362_62">
<rect width="250" height="120" fill="white"/>
</clipPath>
<clipPath id="clip1_2362_62">
<rect width="40" height="40" fill="white" transform="translate(168 40)"/>
</clipPath>
</defs>
</svg>
