<svg width="40" height="40" viewBox="0 0 40 40" fill="none" xmlns="http://www.w3.org/2000/svg">
<g clip-path="url(#clip0_2306_423)">
<path d="M20 1.22461C30.3691 1.22461 38.7754 9.63085 38.7754 20C38.7754 30.3691 30.3691 38.7754 20 38.7754C9.63085 38.7754 1.22461 30.3691 1.22461 20C1.22461 9.63085 9.63085 1.22461 20 1.22461Z" stroke="#0073B1" stroke-width="2.45"/>
<path d="M16.5474 30.5628C15.7389 30.5628 15.0129 30.3906 14.3691 30.0463C13.7403 29.702 13.2538 29.2154 12.9095 28.5867C12.5801 27.9729 12.4454 27.2468 12.5053 26.4084L12.7298 23.1523C12.7598 22.6732 12.625 22.2915 12.3256 22.007C12.0262 21.7226 11.6369 21.5804 11.1579 21.5804H8.35088V18.4365H11.1579C11.6369 18.4365 12.0262 18.2943 12.3256 18.0098C12.625 17.7104 12.7598 17.3287 12.7298 16.8646L12.5053 13.4737C12.4603 12.6503 12.6026 11.9392 12.9319 11.3404C13.2613 10.7266 13.7403 10.255 14.3691 9.92562C14.9979 9.59625 15.724 9.43158 16.5474 9.43158H18.4561V12.5754H17.2211C16.8019 12.5754 16.465 12.6802 16.2105 12.8898C15.956 13.0994 15.8438 13.4438 15.8737 13.9228L16.0982 17.3137C16.1581 18.1371 15.8662 18.8033 15.2225 19.3123C14.5937 19.8063 13.7254 20.0533 12.6175 20.0533V19.8961C13.7254 19.8961 14.5937 20.1581 15.2225 20.6821C15.8662 21.1911 16.1581 21.8648 16.0982 22.7032L15.8737 26.0716C15.8587 26.4758 15.9785 26.8052 16.233 27.0597C16.4875 27.2992 16.8168 27.4189 17.2211 27.4189H18.4561V30.5628H16.5474ZM21.8158 30.5628V27.4189H23.0509C23.4551 27.4189 23.7845 27.2992 24.0389 27.0597C24.3084 26.8052 24.4282 26.4758 24.3982 26.0716L24.1737 22.7032C24.1138 21.8648 24.4057 21.1911 25.0495 20.6821C25.6932 20.1581 26.5615 19.8961 27.6544 19.8961V20.0533C26.5615 20.0533 25.6932 19.8063 25.0495 19.3123C24.4057 18.8033 24.1138 18.1371 24.1737 17.3137L24.3982 13.9228C24.4282 13.4438 24.3159 13.0994 24.0614 12.8898C23.8219 12.6802 23.485 12.5754 23.0509 12.5754H21.8158V9.43158H23.7246C24.548 9.43158 25.274 9.59625 25.9028 9.92562C26.5316 10.255 27.0106 10.7266 27.34 11.3404C27.6843 11.9392 27.8266 12.6503 27.7667 13.4737L27.5421 16.8646C27.5122 17.3287 27.6469 17.7104 27.9463 18.0098C28.2607 18.2943 28.6499 18.4365 29.114 18.4365H31.9211V21.5804H29.114C28.6499 21.5804 28.2607 21.7226 27.9463 22.007C27.6469 22.2915 27.5122 22.6732 27.5421 23.1523L27.7667 26.4084C27.8266 27.2468 27.6843 27.9729 27.34 28.5867C27.0106 29.2154 26.5316 29.702 25.9028 30.0463C25.274 30.3906 24.548 30.5628 23.7246 30.5628H21.8158Z" fill="#0073B1"/>
</g>
<defs>
<clipPath id="clip0_2306_423">
<rect width="40" height="40" fill="white"/>
</clipPath>
</defs>
</svg>
